<?xml version="1.0" encoding="utf-8"?>
<!-- Generator: Adobe Illustrator 16.0.0, SVG Export Plug-In . SVG Version: 6.00 Build 0)  -->
<!DOCTYPE svg PUBLIC "-//W3C//DTD SVG 1.1//EN" "http://www.w3.org/Graphics/SVG/1.1/DTD/svg11.dtd">
<svg version="1.1" id="Layer_1" xmlns="http://www.w3.org/2000/svg" xmlns:xlink="http://www.w3.org/1999/xlink" x="0px" y="0px"
	 width="130px" height="130px" viewBox="0 0 130 130" enable-background="new 0 0 130 130" xml:space="preserve">
<g id="Feet::white">
	<path id="path23324" fill="#FFFFFF" d="M15.981,62.99c1.076,2.658,2.725,6.142,6.1,18.186c2.156,7.697,3.252,20.823,5.682,28.333
		c2.43,7.511,11.305,14.367,17.61,13.793c5.116-0.468,8.569-2.518,10.924-6.864c1.58-2.918,2.43-7.762,1.689-13.746
		c-0.741-5.988-5.587-14.57-6.262-19.436c-0.82-5.896-1.088-12.431-0.15-18.707c0.585-3.911,2.126-6.587,2.805-12.417
		c0.734-6.301,0.941-12.444,0.069-16.118c-1.085-4.576-3.688-6.044-7.222-7.623c-8.699-3.885-30.435,3.867-35.681,14.411
		C6.301,53.346,14.906,60.331,15.981,62.99L15.981,62.99z"/>
	<path id="path3541" fill="#FFFFFF" d="M54.171,17.069c0,5.413-3.117,9.8-6.962,9.8s-6.962-4.387-6.962-9.8
		c0-5.412,3.118-9.8,6.962-9.8C51.054,7.27,54.171,11.657,54.171,17.069z"/>
	<path id="path3541-2" fill="#FFFFFF" d="M38.986,18.401c0.439,3.841-1.416,7.207-4.145,7.519s-5.297-2.549-5.737-6.39
		c-0.44-3.841,1.416-7.208,4.145-7.519C35.978,11.699,38.546,14.56,38.986,18.401L38.986,18.401z"/>
	<path id="path3541-2-0" fill="#FFFFFF" d="M28.248,21.904c1.006,3.681-0.298,7.244-2.913,7.957
		c-2.616,0.713-5.551-1.693-6.558-5.375c-1.006-3.681,0.298-7.244,2.913-7.958C24.305,15.816,27.241,18.222,28.248,21.904z"/>
	<path id="path3541-2-6" fill="#FFFFFF" d="M18.811,27.032c1.278,3.204,0.468,6.536-1.809,7.441
		c-2.276,0.905-5.158-0.959-6.436-4.164s-0.468-6.537,1.81-7.442C14.652,21.963,17.533,23.827,18.811,27.032L18.811,27.032z"/>
	<path id="path3541-2-6-8" fill="#FFFFFF" d="M10.526,33.61c1.564,2.5,1.394,5.424-0.382,6.533c-1.776,1.108-4.483-0.02-6.048-2.519
		c-1.564-2.5-1.393-5.425,0.383-6.533C6.254,29.983,8.961,31.11,10.526,33.61z"/>
	<path id="path3304-7" fill="#FFFFFF" d="M115.021,63.021c-1.073,2.659-2.725,6.141-6.1,18.187
		c-2.156,7.696-3.252,20.821-5.682,28.332c-2.432,7.51-11.307,14.369-17.61,13.792c-5.116-0.467-8.569-2.516-10.924-6.864
		c-1.582-2.916-2.433-7.76-1.688-13.747c0.739-5.986,5.586-14.568,6.262-19.434c0.82-5.896,1.089-12.43,0.147-18.707
		c-0.585-3.91-2.126-6.586-2.804-12.417c-0.732-6.299-0.939-12.442-0.068-16.117c1.084-4.576,3.688-6.044,7.223-7.623
		c8.697-3.886,30.435,3.866,35.681,14.41S116.1,60.361,115.021,63.021L115.021,63.021z"/>
	<path id="path3541-5" fill="#FFFFFF" d="M76.834,17.1c0,5.412,3.117,9.801,6.962,9.801s6.962-4.389,6.962-9.801
		c0-5.413-3.117-9.8-6.962-9.8S76.834,11.688,76.834,17.1z"/>
	<path id="path3541-2-2" fill="#FFFFFF" d="M92.018,18.432c-0.438,3.841,1.418,7.208,4.146,7.519c2.729,0.312,5.297-2.55,5.736-6.391
		c0.438-3.841-1.416-7.207-4.146-7.518C95.025,11.729,92.458,14.591,92.018,18.432L92.018,18.432z"/>
	<path id="path3541-2-0-3" fill="#FFFFFF" d="M102.757,21.935c-1.007,3.681,0.298,7.244,2.913,7.958
		c2.616,0.713,5.551-1.693,6.559-5.374c1.008-3.682-0.299-7.244-2.912-7.958C106.699,15.847,103.764,18.253,102.757,21.935z"/>
	<path id="path3541-2-6-7" fill="#FFFFFF" d="M112.193,27.062c-1.276,3.205-0.469,6.537,1.81,7.441
		c2.276,0.905,5.158-0.958,6.438-4.163c1.275-3.205,0.468-6.537-1.812-7.442C116.354,21.994,113.473,23.858,112.193,27.062z"/>
	<path id="path3541-2-6-8-3" fill="#FFFFFF" d="M120.479,33.641c-1.562,2.5-1.394,5.424,0.385,6.533
		c1.773,1.108,4.482-0.019,6.048-2.519c1.563-2.5,1.394-5.425-0.384-6.534C124.752,30.013,122.043,31.142,120.479,33.641z"/>
</g>
</svg>
