<?xml version="1.0" encoding="utf-8"?>
<!-- Generator: Adobe Illustrator 16.0.0, SVG Export Plug-In . SVG Version: 6.00 Build 0)  -->
<!DOCTYPE svg PUBLIC "-//W3C//DTD SVG 1.1//EN" "http://www.w3.org/Graphics/SVG/1.1/DTD/svg11.dtd">
<svg version="1.1"
	 id="Layer_1" sodipodi:docname="new_lunges_instructions.svg" inkscape:export-xdpi="90" inkscape:export-filename="C:\Users\Tamara\Desktop\getReady.png" inkscape:version="0.48.4 r9939" inkscape:export-ydpi="90" xmlns:osb="http://www.openswatchbook.org/uri/2009/osb" xmlns:svg="http://www.w3.org/2000/svg" xmlns:sodipodi="http://sodipodi.sourceforge.net/DTD/sodipodi-0.dtd" xmlns:cc="http://creativecommons.org/ns#" xmlns:rdf="http://www.w3.org/1999/02/22-rdf-syntax-ns#" xmlns:dc="http://purl.org/dc/elements/1.1/" xmlns:inkscape="http://www.inkscape.org/namespaces/inkscape"
	 xmlns="http://www.w3.org/2000/svg" xmlns:xlink="http://www.w3.org/1999/xlink" x="0px" y="0px" width="290.679px"
	 height="146.905px" viewBox="47.345 128.309 290.679 146.905" enable-background="new 47.345 128.309 290.679 146.905"
	 xml:space="preserve">
<sodipodi:namedview  inkscape:current-layer="Layer_1" inkscape:window-maximized="1" inkscape:window-y="-4" inkscape:window-x="-4" inkscape:window-width="1366" inkscape:pageshadow="2" inkscape:pageopacity="1" inkscape:window-height="721" showgrid="false" objecttolerance="10" inkscape:cx="6.1009052" inkscape:zoom="1.1125147" guidetolerance="10" gridtolerance="10" showborder="true" borderopacity="1" inkscape:cy="410.77074" bordercolor="#666666" pagecolor="#bcbec0" id="namedview35" inkscape:guide-bbox="true" showguides="true">
	</sodipodi:namedview>
<path id="path3778" sodipodi:rx="11.685239" sodipodi:type="arc" sodipodi:ry="11.685239" sodipodi:cx="69.21257" sodipodi:cy="152.36545" fill="none" stroke="#FFFFFF" stroke-width="5" d="
	M73.216,142.51c-0.005,6.454-5.24,11.682-11.694,11.678c-6.454-0.005-11.682-5.24-11.677-11.693c0-0.002,0-0.005,0-0.008
	c0.005-6.454,5.24-11.682,11.693-11.677c6.454,0.004,11.683,5.239,11.678,11.693C73.215,142.504,73.215,142.507,73.216,142.51z"/>
<path id="path3780" inkscape:connector-curvature="0" fill="none" stroke="#FFFFFF" stroke-width="5" d="M61.251,154.517
	c-2.021,39.297-2.207,42.924-2.207,42.924"/>
<path id="path3780-4-8-1" inkscape:connector-curvature="0" fill="none" stroke="#FFFFFF" stroke-width="5" d="M69.956,238.835
	c-9.942-38.071-10.86-41.585-10.86-41.585"/>
<path id="path3780-4-8-1-6" inkscape:connector-curvature="0" fill="none" stroke="#FFFFFF" stroke-width="5" d="M62.272,234.275
	c-2.992-35.307-3.268-38.566-3.268-38.566"/>
<path id="path3780-4-8-8-8" inkscape:connector-curvature="0" fill="none" stroke="#FFFFFF" stroke-width="5" d="M69.891,237.387
	c-3.996,24.28-4.364,26.521-4.364,26.521"/>
<path id="path3780-4-8-8-8-5" inkscape:connector-curvature="0" fill="none" stroke="#FFFFFF" stroke-width="5" d="M62.354,233.167
	c-3.681,24.329-4.021,26.575-4.021,26.575"/>
<path id="path3780-4-8-8-2-4-7" inkscape:connector-curvature="0" fill="none" stroke="#FFFFFF" stroke-width="5" d="
	M62.846,264.842c10.16-0.168,11.098-0.183,11.098-0.183"/>
<path id="path3780-4-8-8-2-4-7-6" inkscape:connector-curvature="0" fill="none" stroke="#FFFFFF" stroke-width="5" d="
	M55.883,261.689c10.16-0.168,11.098-0.184,11.098-0.184"/>
<path id="path3780-1-1-15-1" inkscape:connector-curvature="0" fill="none" stroke="#FFFFFF" stroke-width="5" d="M60.206,167.632
	c-8.955,17.785-9.782,19.427-9.782,19.427"/>
<path id="path3780-1-1-15-1-8-9" inkscape:connector-curvature="0" fill="none" stroke="#FFFFFF" stroke-width="5" d="
	M50.817,185.033c5.569,18.59,6.083,20.306,6.083,20.306"/>
<path id="path3780-1-1-15-1-2" inkscape:connector-curvature="0" fill="none" stroke="#FFFFFF" stroke-width="5" d="M59.995,169.927
	c4.838,19.315,5.285,21.099,5.285,21.099"/>
<path id="path3780-1-1-15-1-8-9-7" inkscape:connector-curvature="0" fill="none" stroke="#FFFFFF" stroke-width="5" d="
	M64.945,190.037c7.625,17.846,8.33,19.493,8.33,19.493"/>
<path id="path3778-9" sodipodi:rx="11.685239" sodipodi:type="arc" sodipodi:ry="11.685239" sodipodi:cx="69.21257" sodipodi:cy="152.36545" fill="none" stroke="#FFFFFF" stroke-width="5" d="
	M304.423,186.273c-0.004,6.454-5.239,11.682-11.692,11.677c-6.454-0.004-11.683-5.239-11.678-11.693c0-0.002,0-0.005,0-0.008
	c0.004-6.454,5.239-11.681,11.693-11.677c6.453,0.004,11.681,5.239,11.678,11.693C304.424,186.268,304.423,186.271,304.423,186.273z
	"/>
<path id="path3780-4" inkscape:connector-curvature="0" fill="none" stroke="#FFFFFF" stroke-width="5" d="M292.741,199.839
	c-0.04,39.348-0.044,42.98-0.044,42.98"/>
<path id="path3780-4-8" inkscape:connector-curvature="0" fill="none" stroke="#FFFFFF" stroke-width="4.7904" d="M320.081,239.957
	c-25.549,0.63-27.907,0.688-27.907,0.688"/>
<path id="path3780-4-8-8" inkscape:connector-curvature="0" fill="none" stroke="#FFFFFF" stroke-width="5" d="M317.613,240.063
	c0.247,24.604,0.27,26.876,0.27,26.876"/>
<path id="path3780-4-8-8-2" inkscape:connector-curvature="0" fill="none" stroke="#FFFFFF" stroke-width="5" d="M243.617,258.446
	c24.606-0.052,26.877-0.057,26.877-0.057"/>
<path id="path3780-4-8-8-2-4" inkscape:connector-curvature="0" fill="none" stroke="#FFFFFF" stroke-width="5" d="M315.343,265.102
	c10.161-0.168,11.099-0.184,11.099-0.184"/>
<path id="path3780-4-8-8-2-4-5" inkscape:connector-curvature="0" fill="none" stroke="#FFFFFF" stroke-width="5" d="
	M245.165,258.986c8.131,6.094,8.882,6.657,8.882,6.657"/>
<path id="path3780-4-8-5" inkscape:connector-curvature="0" fill="none" stroke="#FFFFFF" stroke-width="5" d="M294.186,240.842
	c-22.888,16.299-25,17.803-25,17.803"/>
<path id="path3780-1-1" inkscape:connector-curvature="0" fill="none" stroke="#FFFFFF" stroke-width="5" d="M293.161,206.409
	c14.466,14.113,15.801,15.416,15.801,15.416"/>
<path id="path3780-1-1-1" inkscape:connector-curvature="0" fill="none" stroke="#FFFFFF" stroke-width="5" d="M293.268,233.831
	c14.495-14.083,15.833-15.384,15.833-15.384"/>
<path id="path3780-1-1-15" inkscape:connector-curvature="0" fill="none" stroke="#FFFFFF" stroke-width="5" d="M292.35,206.239
	c-14.495,14.084-15.833,15.384-15.833,15.384"/>
<path id="path3780-1-1-1-2" inkscape:connector-curvature="0" fill="none" stroke="#FFFFFF" stroke-width="5" d="M292.187,233.662
	c-14.466-14.113-15.802-15.417-15.802-15.417"/>
<text transform="matrix(1 0.001 -0.001 1 263.73 158.4771)" fill="#FFFFFF" font-family="'Calibri-Bold'" font-size="24">Hold it!</text>
<path id="path3778-1-4" sodipodi:rx="11.685239" sodipodi:type="arc" sodipodi:ry="11.685239" sodipodi:cx="69.21257" sodipodi:cy="152.36545" fill="none" stroke="#FFFFFF" stroke-width="3" d="
	M258.905,150.445c-0.004,6.454-5.24,11.682-11.693,11.678c-6.454-0.005-11.683-5.24-11.678-11.693c0-0.002,0-0.005,0-0.008
	c0.004-6.454,5.239-11.682,11.693-11.678c6.453,0.005,11.682,5.24,11.677,11.693C258.905,150.44,258.905,150.443,258.905,150.445z"
	/>
<text transform="matrix(1 0.001 -0.001 1 240.8184 158.0669)" fill="#FFFFFF" font-family="'Calibri-Bold'" font-size="24">2</text>
<path id="path3780-4-8-3" inkscape:connector-curvature="0" fill="none" stroke="#FFFFFF" stroke-width="5" d="M192.786,188.805
	c-69.424,0.213-75.833,0.233-75.833,0.233"/>
<path id="path7207" inkscape:connector-curvature="0" fill="#FFFFFF" d="M190.879,182.326l-0.007,6.722l15.492,0.015
	L190.879,182.326z"/>
<path id="path7207-1" inkscape:connector-curvature="0" fill="#FFFFFF" d="M190.811,195.591l0.007-6.721l15.493,0.016
	L190.811,195.591z"/>
<path id="path3780-4-8-3-3" inkscape:connector-curvature="0" fill="none" stroke="#FFFFFF" stroke-width="5" d="M128.016,206.739
	c69.423,0.354,75.831,0.387,75.831,0.387"/>
<path id="path7207-4" inkscape:connector-curvature="0" fill="#FFFFFF" d="M129.935,200.263l-0.007,6.721l-15.492-0.015
	L129.935,200.263z"/>
<path id="path7207-1-1" inkscape:connector-curvature="0" fill="#FFFFFF" d="M129.977,213.529l0.007-6.721l-15.492-0.016
	L129.977,213.529z"/>
<path id="path3778-1" sodipodi:rx="11.685239" sodipodi:type="arc" sodipodi:ry="11.685239" sodipodi:cx="69.21257" sodipodi:cy="152.36545" fill="none" stroke="#FFFFFF" stroke-width="3" d="
	M172.123,161.495c-0.004,6.453-5.239,11.682-11.693,11.677c-6.454-0.005-11.682-5.24-11.677-11.693c0-0.003,0-0.005,0-0.008
	c0.004-6.454,5.24-11.683,11.693-11.678c6.454,0.004,11.682,5.239,11.677,11.693C172.123,161.49,172.123,161.492,172.123,161.495z"
	/>
<text transform="matrix(1 0.001 -0.001 1 154.0361 169.1157)" fill="#FFFFFF" font-family="'Calibri-Bold'" font-size="24">1</text>
<text transform="matrix(1 0.001 -0.001 1 116.9458 267.7778)" fill="#FFFFFF" font-family="'Calibri-Bold'" font-size="24">Go back!</text>
<path id="path3778-1-4-8" sodipodi:rx="11.685239" sodipodi:type="arc" sodipodi:ry="11.685239" sodipodi:cx="69.21257" sodipodi:cy="152.36545" fill="none" stroke="#FFFFFF" stroke-width="3" d="
	M172.05,233.112c-0.004,6.454-5.24,11.681-11.693,11.677c-6.454-0.004-11.682-5.24-11.677-11.693c0-0.002,0-0.005,0-0.008
	c0.004-6.454,5.239-11.682,11.693-11.677c6.453,0.004,11.681,5.24,11.677,11.693C172.05,233.107,172.05,233.109,172.05,233.112z"/>
<text transform="matrix(1 0.001 -0.001 1 153.9634 240.7334)" fill="#FFFFFF" font-family="'Calibri-Bold'" font-size="24">3</text>
</svg>
