<?xml version="1.0" encoding="utf-8"?>
<!-- Generator: Adobe Illustrator 16.0.0, SVG Export Plug-In . SVG Version: 6.00 Build 0)  -->
<!DOCTYPE svg PUBLIC "-//W3C//DTD SVG 1.1//EN" "http://www.w3.org/Graphics/SVG/1.1/DTD/svg11.dtd">
<svg version="1.1" id="Layer_1" xmlns="http://www.w3.org/2000/svg" xmlns:xlink="http://www.w3.org/1999/xlink" x="0px" y="0px"
	 width="800px" height="600px" viewBox="0 0 800 600" enable-background="new 0 0 800 600" xml:space="preserve">
<path id="path3778-1-4-3" sodipodi:rx="11.685239" sodipodi:type="arc" sodipodi:ry="11.685239" sodipodi:cx="69.21257" sodipodi:cy="152.36545" fill="none" stroke="#FFFFFF" stroke-width="3" d="
	M39.425,410.657c4.479,4.646,4.346,12.043-0.3,16.522c-4.646,4.48-12.043,4.346-16.522-0.299c-0.002-0.002-0.004-0.004-0.006-0.006
	c-4.479-4.646-4.346-12.043,0.3-16.522c4.646-4.48,12.043-4.347,16.522,0.299C39.421,410.653,39.423,410.655,39.425,410.657z"/>
<text transform="matrix(0.9397 -0.342 0.342 0.9397 27.9019 428.1094)" fill="#FFFFFF" font-family="'Calibri-Bold'" font-size="24">1</text>
<text transform="matrix(0.9397 -0.342 0.342 0.9397 49.9668 418.4023)" fill="#FFFFFF" font-family="'Calibri-Bold'" font-size="24">Start in the center!</text>
<path id="path5" inkscape:connector-curvature="0" fill="#EC2227" d="M30.766,287.81c0.29,0.795-0.121,1.676-0.917,1.965
	l-14.235,5.181c-0.796,0.29-1.676-0.121-1.966-0.917l-5.181-14.235c-0.29-0.796,0.121-1.676,0.917-1.965l14.235-5.182
	c0.796-0.29,1.676,0.121,1.966,0.917L30.766,287.81z"/>
<path id="path7" inkscape:connector-curvature="0" fill="#3DB54A" d="M152.301,243.574c0.29,0.796-0.121,1.676-0.917,1.966
	l-14.235,5.181c-0.796,0.29-1.676-0.121-1.966-0.917l-5.182-14.235c-0.29-0.796,0.121-1.676,0.917-1.966l14.235-5.181
	c0.796-0.29,1.676,0.121,1.966,0.917L152.301,243.574L152.301,243.574z"/>
<path id="path9" inkscape:connector-curvature="0" fill="#FCEE23" d="M184.076,330.874c0.29,0.796-0.121,1.677-0.917,1.966
	l-14.235,5.182c-0.796,0.289-1.676-0.121-1.966-0.917l-5.181-14.235c-0.29-0.796,0.121-1.676,0.917-1.966l14.235-5.181
	c0.796-0.29,1.676,0.12,1.966,0.916L184.076,330.874z"/>
<path id="path11" inkscape:connector-curvature="0" fill="#2E368F" d="M62.54,375.109c0.29,0.796-0.121,1.676-0.917,1.966
	l-14.235,5.182c-0.796,0.289-1.676-0.121-1.966-0.917l-5.181-14.235c-0.29-0.796,0.121-1.676,0.917-1.966l14.235-5.182
	c0.796-0.289,1.676,0.121,1.966,0.917L62.54,375.109z"/>
<rect id="rect13" x="84.493" y="293.67" transform="matrix(-0.9397 0.342 -0.342 -0.9397 291.3501 559.6464)" fill="#A7A9AC" width="23.681" height="23.681"/>
<path id="path3304-1" inkscape:connector-curvature="0" fill="#FFFFFF" d="M87.817,308.221c0.35,0.388,0.849,0.881,2.177,2.732
	c0.849,1.184,1.854,3.362,2.738,4.496c0.884,1.135,2.83,1.755,3.874,1.264c0.846-0.398,1.31-0.965,1.442-1.855
	c0.089-0.598-0.067-1.48-0.567-2.458c-0.5-0.979-1.864-2.146-2.283-2.937c-0.508-0.959-0.961-2.061-1.191-3.193
	c-0.144-0.706-0.046-1.26-0.293-2.3c-0.267-1.125-0.614-2.188-0.993-2.764c-0.471-0.716-1.008-0.805-1.711-0.855
	c-1.731-0.123-4.969,2.558-5.21,4.69S87.468,307.832,87.817,308.221L87.817,308.221L87.817,308.221z"/>
<path id="path3541-7" inkscape:connector-curvature="0" fill="#FFFFFF" d="M91.494,297.98c0.337,0.927,0.077,1.872-0.582,2.111
	c-0.658,0.239-1.465-0.317-1.802-1.244c-0.337-0.926-0.077-1.872,0.582-2.111C90.35,296.497,91.156,297.054,91.494,297.98z"/>
<path id="path3541-2-4" inkscape:connector-curvature="0" fill="#FFFFFF" d="M88.977,299.154c0.314,0.63,0.207,1.322-0.241,1.545
	c-0.448,0.223-1.066-0.106-1.38-0.736s-0.207-1.322,0.241-1.545S88.663,298.524,88.977,299.154L88.977,299.154z"/>
<path id="path3541-2-0-0" inkscape:connector-curvature="0" fill="#FFFFFF" d="M87.357,300.423c0.401,0.567,0.4,1.259-0.003,1.544
	s-1.056,0.056-1.458-0.512s-0.4-1.259,0.003-1.544C86.303,299.627,86.956,299.855,87.357,300.423z"/>
<path id="path3541-2-6-9" inkscape:connector-curvature="0" fill="#FFFFFF" d="M86.062,301.889c0.418,0.469,0.487,1.09,0.154,1.387
	c-0.333,0.297-0.943,0.157-1.361-0.312c-0.419-0.47-0.488-1.09-0.154-1.387S85.643,301.42,86.062,301.889L86.062,301.889z"/>
<path id="path3541-2-6-8-4" inkscape:connector-curvature="0" fill="#FFFFFF" d="M85.053,303.531
	c0.424,0.33,0.577,0.842,0.342,1.142c-0.235,0.301-0.769,0.276-1.192-0.054c-0.423-0.331-0.577-0.842-0.341-1.143
	C84.096,303.176,84.629,303.201,85.053,303.531L85.053,303.531z"/>
<path id="path3304-7-8" inkscape:connector-curvature="0" fill="#FFFFFF" d="M104.772,302.055c-0.018,0.522-0.084,1.222,0.089,3.494
	c0.111,1.451,0.741,3.767,0.792,5.203c0.052,1.438-1.041,3.164-2.155,3.458c-0.905,0.239-1.624,0.104-2.298-0.494
	c-0.453-0.4-0.9-1.177-1.146-2.248c-0.247-1.07,0.049-2.842-0.139-3.717c-0.227-1.061-0.588-2.195-1.141-3.211
	c-0.344-0.633-0.774-0.995-1.254-1.951c-0.518-1.032-0.936-2.071-1.016-2.755c-0.099-0.851,0.255-1.264,0.762-1.755
	c1.247-1.207,5.451-1.234,7.006,0.244C105.829,299.801,104.792,301.533,104.772,302.055L104.772,302.055z"/>
<path id="path3541-5-8" inkscape:connector-curvature="0" fill="#FFFFFF" d="M95.375,296.574c0.337,0.926,1.144,1.483,1.802,1.244
	c0.658-0.239,0.918-1.185,0.581-2.111s-1.144-1.483-1.802-1.244S95.038,295.647,95.375,296.574z"/>
<path id="path3541-2-2-2" inkscape:connector-curvature="0" fill="#FFFFFF" d="M98.057,295.855c0.164,0.685,0.692,1.146,1.178,1.029
	c0.486-0.117,0.748-0.767,0.583-1.452c-0.165-0.685-0.691-1.146-1.178-1.029C98.154,294.521,97.893,295.171,98.057,295.855
	L98.057,295.855z"/>
<path id="path3541-2-0-3-4" inkscape:connector-curvature="0" fill="#FFFFFF" d="M100.113,295.786
	c0.057,0.693,0.502,1.222,0.995,1.181s0.845-0.636,0.788-1.328c-0.057-0.693-0.502-1.222-0.995-1.181
	C100.409,294.499,100.057,295.093,100.113,295.786z"/>
<path id="path3541-2-6-7-5" inkscape:connector-curvature="0" fill="#FFFFFF" d="M102.048,296.076
	c-0.019,0.628,0.327,1.148,0.773,1.161c0.446,0.013,0.823-0.485,0.843-1.114c0.019-0.628-0.327-1.148-0.773-1.161
	C102.445,294.949,102.067,295.448,102.048,296.076z"/>
<path id="path3541-2-6-8-3-5" inkscape:connector-curvature="0" fill="#FFFFFF" d="M103.876,296.686
	c-0.112,0.525,0.099,1.015,0.473,1.094c0.372,0.079,0.766-0.282,0.878-0.808c0.111-0.525-0.099-1.016-0.473-1.094
	C104.382,295.799,103.988,296.16,103.876,296.686L103.876,296.686z"/>
<rect id="rect3" x="23.406" y="250.69" transform="matrix(-0.9397 0.342 -0.342 -0.9397 291.1691 559.3376)" fill="none" stroke="#FFFFFF" stroke-width="0.8607" stroke-miterlimit="10" width="145.73" height="109.299"/>
<path id="path3778-1-4-3-2" sodipodi:rx="11.685239" sodipodi:type="arc" sodipodi:ry="11.685239" sodipodi:cx="69.21257" sodipodi:cy="152.36545" fill="none" stroke="#FFFFFF" stroke-width="1.0799" d="
	M109.671,292.359c7.141,7.405,6.927,19.196-0.478,26.336c-7.405,7.141-19.196,6.927-26.336-0.478
	c-0.003-0.003-0.006-0.007-0.009-0.009c-7.141-7.404-6.927-19.196,0.478-26.337c7.405-7.141,19.196-6.927,26.336,0.478
	C109.665,292.353,109.668,292.356,109.671,292.359z"/>
<path id="path5-1" inkscape:connector-curvature="0" fill="#EC2227" d="M338.045,226.562c0,1.355-0.904,2.454-2.019,2.454h-59.649
	c-1.114,0-2.018-1.099-2.018-2.454v-58.776c0-1.355,0.904-2.455,2.018-2.455h59.649c1.115,0,2.019,1.1,2.019,2.455V226.562z"/>
<path id="path7-4" inkscape:connector-curvature="0" fill="#BDBEC0" stroke="#BDBEC0" stroke-width="0.9098" stroke-miterlimit="10" d="
	M320.759,209.582c0,1.186-0.962,2.147-2.148,2.147h-24.818c-1.187,0-2.148-0.961-2.148-2.147v-24.818
	c0-1.186,0.961-2.147,2.148-2.147h24.818c1.186,0,2.148,0.961,2.148,2.147V209.582z"/>
<path id="path9-2" inkscape:connector-curvature="0" fill="#EC2227" d="M250.862,158.339c0,0.846-0.686,1.532-1.532,1.532h-15.132
	c-0.846,0-1.532-0.686-1.532-1.532v-15.132c0-0.846,0.686-1.531,1.532-1.531h15.132c0.846,0,1.532,0.686,1.532,1.531V158.339z"/>
<path id="path11-3" inkscape:connector-curvature="0" fill="#3DB54A" d="M379.896,158.339c0,0.846-0.687,1.532-1.532,1.532h-15.132
	c-0.846,0-1.532-0.686-1.532-1.532v-15.132c0-0.846,0.686-1.531,1.532-1.531h15.132c0.846,0,1.532,0.686,1.532,1.531V158.339z"/>
<path id="path13" inkscape:connector-curvature="0" fill="#FCEE23" d="M379.896,251.138c0,0.846-0.687,1.532-1.532,1.532h-15.132
	c-0.846,0-1.532-0.686-1.532-1.532v-15.132c0-0.846,0.686-1.532,1.532-1.532h15.132c0.846,0,1.532,0.686,1.532,1.532V251.138z"/>
<path id="path15" inkscape:connector-curvature="0" fill="#2E368F" d="M250.704,251.138c0,0.846-0.686,1.532-1.532,1.532H234.04
	c-0.846,0-1.531-0.686-1.531-1.532v-15.132c0-0.846,0.686-1.532,1.531-1.532h15.132c0.846,0,1.532,0.686,1.532,1.532V251.138z"/>
<rect id="rect3-6" x="233.418" y="142.585" fill="none" stroke="#FFFFFF" stroke-width="0.8653" stroke-miterlimit="10" width="145.567" height="109.176"/>
<path id="path3778-1-4-3-2-0" sodipodi:rx="11.685239" sodipodi:type="arc" sodipodi:ry="11.685239" sodipodi:cx="69.21257" sodipodi:cy="152.36545" fill="none" stroke="#FFFFFF" stroke-width="1.0799" d="
	M259.217,143.933c4.178,9.4-0.056,20.407-9.456,24.584c-9.4,4.177-20.407-0.056-24.584-9.457c-0.001-0.004-0.003-0.007-0.005-0.011
	c-4.177-9.4,0.057-20.407,9.457-24.584s20.407,0.056,24.584,9.456C259.214,143.925,259.215,143.929,259.217,143.933z"/>
<path id="path3778-1-4-3-6" sodipodi:rx="11.685239" sodipodi:type="arc" sodipodi:ry="11.685239" sodipodi:cx="69.21257" sodipodi:cy="152.36545" fill="none" stroke="#FFFFFF" stroke-width="3" d="
	M276.11,271.371c2.621,5.897-0.036,12.803-5.933,15.424c-5.897,2.621-12.803-0.035-15.424-5.933
	c-0.001-0.003-0.002-0.005-0.003-0.007c-2.621-5.897,0.035-12.803,5.933-15.424s12.803,0.035,15.424,5.933
	C276.107,271.366,276.108,271.369,276.11,271.371z"/>
<text transform="matrix(1 0 0 1 259.3125 283.8301)" fill="#FFFFFF" font-family="'Calibri-Bold'" font-size="24">2</text>
<text transform="matrix(1 0 0 1 282.6836 284.1348)" fill="#FFFFFF" font-family="'Calibri-Bold'" font-size="24">Tap the</text>
<text transform="matrix(1 0 0 1 229.6113 312.5)" fill="#FFFFFF" font-family="'Calibri-Bold'" font-size="24">matching field!</text>
<path id="path5-9" inkscape:connector-curvature="0" fill="#FFFFFF" stroke="#FFFFFF" stroke-width="0.9108" stroke-miterlimit="10" d="
	M534.488,209.711c0,1.188-0.962,2.15-2.149,2.15h-24.847c-1.188,0-2.149-0.962-2.149-2.15v-24.846c0-1.188,0.962-2.15,2.149-2.15
	h24.847c1.188,0,2.149,0.962,2.149,2.15V209.711z"/>
<path id="path7-8" inkscape:connector-curvature="0" fill="#EC2227" d="M464.355,158.411c0,0.847-0.687,1.534-1.533,1.534h-15.148
	c-0.848,0-1.534-0.687-1.534-1.534v-15.149c0-0.847,0.687-1.534,1.534-1.534h15.148c0.847,0,1.533,0.687,1.533,1.534V158.411z"/>
<path id="path9-6" inkscape:connector-curvature="0" fill="#3DB54A" d="M593.691,158.411c0,0.847-0.687,1.534-1.533,1.534H577.01
	c-0.848,0-1.534-0.687-1.534-1.534v-15.149c0-0.847,0.687-1.534,1.534-1.534h15.148c0.847,0,1.533,0.687,1.533,1.534V158.411z"/>
<path id="path11-5" inkscape:connector-curvature="0" fill="#FCEE23" d="M593.691,251.313c0,0.848-0.687,1.534-1.533,1.534H577.01
	c-0.848,0-1.534-0.687-1.534-1.534v-15.148c0-0.847,0.687-1.534,1.534-1.534h15.148c0.847,0,1.533,0.687,1.533,1.534V251.313z"/>
<path id="path13-0" inkscape:connector-curvature="0" fill="#2E368F" d="M464.355,251.313c0,0.848-0.687,1.534-1.533,1.534h-15.148
	c-0.848,0-1.534-0.687-1.534-1.534v-15.148c0-0.847,0.687-1.534,1.534-1.534h15.148c0.847,0,1.533,0.687,1.533,1.534V251.313z"/>
<rect id="rect3-1" x="447.051" y="142.639" fill="none" stroke="#FFFFFF" stroke-width="0.8607" stroke-miterlimit="10" width="145.73" height="109.298"/>
<path id="path3778-1-4-3-2-06" sodipodi:rx="11.685239" sodipodi:type="arc" sodipodi:ry="11.685239" sodipodi:cx="69.21257" sodipodi:cy="152.36545" fill="none" stroke="#FFFFFF" stroke-width="0.8113" d="
	M542.066,187.287c5.562,12.513-0.074,27.165-12.588,32.727c-12.513,5.561-27.165-0.075-32.727-12.588
	c-0.002-0.005-0.004-0.011-0.006-0.016c-5.562-12.513,0.074-27.165,12.588-32.727c12.513-5.561,27.165,0.075,32.727,12.588
	C542.062,187.277,542.064,187.282,542.066,187.287z"/>
<path id="path3778-1-4-3-6-8" sodipodi:rx="11.685239" sodipodi:type="arc" sodipodi:ry="11.685239" sodipodi:cx="69.21257" sodipodi:cy="152.36545" fill="none" stroke="#FFFFFF" stroke-width="3" d="
	M452.632,271.258c2.62,5.897-0.035,12.803-5.933,15.424s-12.803-0.035-15.424-5.933c-0.001-0.002-0.002-0.005-0.004-0.007
	c-2.62-5.897,0.036-12.803,5.934-15.424c5.896-2.621,12.803,0.035,15.424,5.933C452.629,271.253,452.631,271.256,452.632,271.258z"
	/>
<text transform="matrix(1 0 0 1 435.835 283.7168)" fill="#FFFFFF" font-family="'Calibri-Bold'" font-size="24">3</text>
<text transform="matrix(1 0 0 1 459.2051 284.0215)" fill="#FFFFFF" font-family="'Calibri-Bold'" font-size="24">Tap the center!</text>
<path id="path9-61" inkscape:connector-curvature="0" fill="#EC2227" d="M667.488,252.877c-0.289,0.796-1.17,1.207-1.966,0.917
	l-14.235-5.182c-0.796-0.289-1.206-1.17-0.916-1.965l5.181-14.236c0.29-0.796,1.17-1.206,1.966-0.916l14.235,5.181
	c0.796,0.29,1.206,1.17,0.917,1.966L667.488,252.877z"/>
<path id="path13-9" inkscape:connector-curvature="0" fill="#FCEE23" d="M757.25,384.413c-0.29,0.796-1.17,1.206-1.966,0.917
	l-14.235-5.182c-0.796-0.289-1.207-1.17-0.917-1.966l5.182-14.235c0.289-0.796,1.169-1.206,1.966-0.916l14.235,5.181
	c0.796,0.29,1.206,1.17,0.916,1.966L757.25,384.413z"/>
<path id="path15-3" inkscape:connector-curvature="0" fill="#2E368F" d="M635.714,340.178c-0.29,0.796-1.17,1.206-1.966,0.916
	l-14.235-5.181c-0.796-0.29-1.206-1.17-0.917-1.966l5.182-14.235c0.289-0.796,1.17-1.206,1.966-0.917l14.235,5.182
	c0.796,0.289,1.206,1.17,0.916,1.966L635.714,340.178z"/>
<path id="path11-38" inkscape:connector-curvature="0" fill="#3DB54A" d="M789.024,297.112c-0.29,0.796-1.17,1.207-1.966,0.917
	l-14.235-5.182c-0.796-0.289-1.206-1.169-0.917-1.966l5.182-14.235c0.29-0.796,1.17-1.207,1.966-0.917l14.235,5.181
	c0.796,0.29,1.206,1.169,0.917,1.965L789.024,297.112z"/>
<rect id="rect3-9" x="633.536" y="253.763" transform="matrix(-0.9397 -0.342 0.342 -0.9397 1264.7168 839.8286)" fill="none" stroke="#FFFFFF" stroke-width="0.8607" stroke-miterlimit="10" width="145.73" height="109.297"/>
<path id="path5-0" inkscape:connector-curvature="0" fill="#2E368F" d="M726.294,346.963c-0.464,1.274-1.69,1.999-2.738,1.617
	l-56.116-20.424c-1.048-0.382-1.521-1.725-1.058-3l20.126-55.294c0.464-1.275,1.689-2,2.738-1.618l56.115,20.424
	c1.049,0.381,1.522,1.725,1.059,3L726.294,346.963z"/>
<path id="path7-0" inkscape:connector-curvature="0" fill="#BDBEC0" stroke="#BDBEC0" stroke-width="0.9108" stroke-miterlimit="10" d="
	M715.846,325.07c-0.406,1.116-1.64,1.691-2.756,1.285l-23.348-8.498c-1.115-0.406-1.69-1.64-1.284-2.756l8.497-23.348
	c0.406-1.116,1.641-1.691,2.756-1.285l23.348,8.498c1.116,0.406,1.691,1.64,1.285,2.756L715.846,325.07z"/>
<path id="path3778-1-4-3-2-0-1" sodipodi:rx="11.685239" sodipodi:type="arc" sodipodi:ry="11.685239" sodipodi:cx="69.21257" sodipodi:cy="152.36545" fill="none" stroke="#FFFFFF" stroke-width="1.0799" d="
	M648.856,327.642c0.711,10.262-7.032,19.157-17.294,19.868c-10.262,0.71-19.157-7.033-19.868-17.295c0-0.004,0-0.008-0.001-0.013
	c-0.71-10.262,7.033-19.157,17.295-19.867c10.262-0.711,19.157,7.032,19.867,17.294
	C648.856,327.633,648.856,327.638,648.856,327.642z"/>
<path id="path3778-1-4-3-6-87" sodipodi:rx="11.685239" sodipodi:type="arc" sodipodi:ry="11.685239" sodipodi:cx="69.21257" sodipodi:cy="152.36545" fill="none" stroke="#FFFFFF" stroke-width="3" d="
	M687.698,383.445c0.446,6.438-4.412,12.019-10.85,12.465c-6.438,0.445-12.019-4.412-12.465-10.851c0-0.003-0.001-0.005-0.001-0.008
	c-0.445-6.438,4.412-12.019,10.851-12.465c6.438-0.445,12.019,4.412,12.464,10.851C687.698,383.439,687.698,383.442,687.698,383.445
	z"/>
<text transform="matrix(0.9397 0.342 -0.342 0.9397 667.6533 389.4082)" fill="#FFFFFF" font-family="'Calibri-Bold'" font-size="24">2</text>
<text transform="matrix(0.9397 0.342 -0.342 0.9397 689.5107 397.6875)" fill="#FFFFFF" font-family="'Calibri-Bold'" font-size="24">and</text>
<text transform="matrix(0.9397 0.342 -0.342 0.9397 757.0312 422.1367)" fill="#FFFFFF" font-family="'Calibri-Bold'" font-size="24">!</text>
<g id="g4437-1-6-7-8" transform="matrix(0.99763426,-0.06874511,0.06874511,0.99763426,248.64916,112.10949)">
	
		<path id="path3778-1-4-3-6-8-4" sodipodi:rx="11.685239" sodipodi:type="arc" sodipodi:ry="11.685239" sodipodi:cx="69.21257" sodipodi:cy="152.36545" fill="none" stroke="#FFFFFF" stroke-width="3" d="
		M485.119,330.259c0,6.454-5.232,11.685-11.685,11.685c-6.454,0-11.686-5.232-11.685-11.685
		c-0.001-6.454,5.232-11.686,11.685-11.685C479.887,318.574,485.119,323.805,485.119,330.259z"/>
</g>
<text transform="matrix(0.9397 0.342 -0.342 0.9397 735.2793 414.1992)" fill="#FFFFFF" font-family="'Calibri-Bold'" font-size="24">3</text>
<text transform="matrix(0.9397 0.342 -0.342 0.9397 591.75 362.2832)" fill="#FFFFFF" font-family="'Calibri-Bold'" font-size="24">Repeat</text>
</svg>
